<mxfile host="app.diagrams.net" modified="2024-07-11T01:30:48.728Z" agent="Mozilla/5.0 (Macintosh; Intel Mac OS X 10_15_7) AppleWebKit/537.36 (KHTML, like Gecko) Chrome/126.0.0.0 Safari/537.36" etag="a4oP1C4UdAjK1dEpr6s2" version="24.6.4" type="github">
  <diagram name="Page-1" id="14VtxvchuqkJRpTmdXnF">
    <mxGraphModel dx="1981" dy="1057" grid="1" gridSize="10" guides="1" tooltips="1" connect="1" arrows="1" fold="1" page="1" pageScale="1" pageWidth="850" pageHeight="1100" math="0" shadow="0">
      <root>
        <mxCell id="0" />
        <mxCell id="1" parent="0" />
        <mxCell id="EmhNzNYPSMTOKzb81x5m-1" value="Senior Care Management App" style="swimlane;childLayout=stackLayout;resizeParent=1;resizeParentMax=0;startSize=20;html=1;" vertex="1" parent="1">
          <mxGeometry x="60" y="80" width="1010" height="850" as="geometry" />
        </mxCell>
        <mxCell id="EmhNzNYPSMTOKzb81x5m-2" value="Patient" style="swimlane;startSize=20;html=1;" vertex="1" parent="EmhNzNYPSMTOKzb81x5m-1">
          <mxGeometry y="20" width="260" height="830" as="geometry" />
        </mxCell>
        <mxCell id="EmhNzNYPSMTOKzb81x5m-51" style="edgeStyle=orthogonalEdgeStyle;rounded=0;orthogonalLoop=1;jettySize=auto;html=1;entryX=0.5;entryY=0;entryDx=0;entryDy=0;" edge="1" parent="EmhNzNYPSMTOKzb81x5m-2" source="EmhNzNYPSMTOKzb81x5m-14" target="EmhNzNYPSMTOKzb81x5m-24">
          <mxGeometry relative="1" as="geometry" />
        </mxCell>
        <mxCell id="EmhNzNYPSMTOKzb81x5m-14" value="&lt;span style=&quot;font-size: medium;&quot;&gt;Check diagnosis details&lt;/span&gt;" style="rounded=1;whiteSpace=wrap;html=1;" vertex="1" parent="EmhNzNYPSMTOKzb81x5m-2">
          <mxGeometry x="60" y="140" width="130" height="60" as="geometry" />
        </mxCell>
        <mxCell id="EmhNzNYPSMTOKzb81x5m-56" style="edgeStyle=orthogonalEdgeStyle;rounded=0;orthogonalLoop=1;jettySize=auto;html=1;entryX=0.25;entryY=0;entryDx=0;entryDy=0;" edge="1" parent="EmhNzNYPSMTOKzb81x5m-2" source="EmhNzNYPSMTOKzb81x5m-15" target="EmhNzNYPSMTOKzb81x5m-16">
          <mxGeometry relative="1" as="geometry" />
        </mxCell>
        <mxCell id="EmhNzNYPSMTOKzb81x5m-59" value="&lt;font style=&quot;font-size: 14px;&quot;&gt;Medication&lt;/font&gt;" style="edgeLabel;html=1;align=center;verticalAlign=middle;resizable=0;points=[];" vertex="1" connectable="0" parent="EmhNzNYPSMTOKzb81x5m-56">
          <mxGeometry x="0.4508" relative="1" as="geometry">
            <mxPoint as="offset" />
          </mxGeometry>
        </mxCell>
        <mxCell id="EmhNzNYPSMTOKzb81x5m-57" style="edgeStyle=orthogonalEdgeStyle;rounded=0;orthogonalLoop=1;jettySize=auto;html=1;entryX=0.5;entryY=0;entryDx=0;entryDy=0;" edge="1" parent="EmhNzNYPSMTOKzb81x5m-2" source="EmhNzNYPSMTOKzb81x5m-15" target="EmhNzNYPSMTOKzb81x5m-17">
          <mxGeometry relative="1" as="geometry" />
        </mxCell>
        <mxCell id="EmhNzNYPSMTOKzb81x5m-60" value="&lt;font style=&quot;font-size: 14px;&quot;&gt;Dr Appointment&lt;/font&gt;" style="edgeLabel;html=1;align=center;verticalAlign=middle;resizable=0;points=[];" vertex="1" connectable="0" parent="EmhNzNYPSMTOKzb81x5m-57">
          <mxGeometry x="0.2714" y="-2" relative="1" as="geometry">
            <mxPoint as="offset" />
          </mxGeometry>
        </mxCell>
        <mxCell id="EmhNzNYPSMTOKzb81x5m-58" style="edgeStyle=orthogonalEdgeStyle;rounded=0;orthogonalLoop=1;jettySize=auto;html=1;entryX=0.5;entryY=0;entryDx=0;entryDy=0;" edge="1" parent="EmhNzNYPSMTOKzb81x5m-2" source="EmhNzNYPSMTOKzb81x5m-15" target="EmhNzNYPSMTOKzb81x5m-18">
          <mxGeometry relative="1" as="geometry" />
        </mxCell>
        <mxCell id="EmhNzNYPSMTOKzb81x5m-61" value="&lt;font style=&quot;font-size: 14px;&quot;&gt;Lab Appointment&lt;/font&gt;" style="edgeLabel;html=1;align=center;verticalAlign=middle;resizable=0;points=[];" vertex="1" connectable="0" parent="EmhNzNYPSMTOKzb81x5m-58">
          <mxGeometry x="0.6" y="2" relative="1" as="geometry">
            <mxPoint as="offset" />
          </mxGeometry>
        </mxCell>
        <mxCell id="EmhNzNYPSMTOKzb81x5m-15" value="&lt;font size=&quot;3&quot;&gt;Reminder Type&lt;/font&gt;" style="rhombus;whiteSpace=wrap;html=1;" vertex="1" parent="EmhNzNYPSMTOKzb81x5m-2">
          <mxGeometry x="65" y="450" width="120" height="80" as="geometry" />
        </mxCell>
        <mxCell id="EmhNzNYPSMTOKzb81x5m-16" value="&lt;font size=&quot;3&quot;&gt;Take medication&lt;/font&gt;" style="rounded=1;whiteSpace=wrap;html=1;" vertex="1" parent="EmhNzNYPSMTOKzb81x5m-2">
          <mxGeometry x="10" y="590" width="110" height="60" as="geometry" />
        </mxCell>
        <mxCell id="EmhNzNYPSMTOKzb81x5m-17" value="&lt;font size=&quot;3&quot;&gt;Visit doctor office&lt;/font&gt;" style="rounded=1;whiteSpace=wrap;html=1;" vertex="1" parent="EmhNzNYPSMTOKzb81x5m-2">
          <mxGeometry x="150" y="590" width="110" height="60" as="geometry" />
        </mxCell>
        <mxCell id="EmhNzNYPSMTOKzb81x5m-18" value="&lt;font size=&quot;3&quot;&gt;Visit Lab&lt;/font&gt;" style="rounded=1;whiteSpace=wrap;html=1;" vertex="1" parent="EmhNzNYPSMTOKzb81x5m-2">
          <mxGeometry x="65" y="700" width="120" height="60" as="geometry" />
        </mxCell>
        <mxCell id="EmhNzNYPSMTOKzb81x5m-44" style="edgeStyle=orthogonalEdgeStyle;rounded=0;orthogonalLoop=1;jettySize=auto;html=1;entryX=0.5;entryY=0;entryDx=0;entryDy=0;" edge="1" parent="EmhNzNYPSMTOKzb81x5m-2" source="EmhNzNYPSMTOKzb81x5m-19" target="EmhNzNYPSMTOKzb81x5m-14">
          <mxGeometry relative="1" as="geometry" />
        </mxCell>
        <mxCell id="EmhNzNYPSMTOKzb81x5m-19" value="&lt;font size=&quot;3&quot;&gt;Book appointment with Physician&lt;/font&gt;" style="rounded=1;whiteSpace=wrap;html=1;" vertex="1" parent="EmhNzNYPSMTOKzb81x5m-2">
          <mxGeometry x="60" y="40" width="130" height="60" as="geometry" />
        </mxCell>
        <mxCell id="EmhNzNYPSMTOKzb81x5m-53" style="edgeStyle=orthogonalEdgeStyle;rounded=0;orthogonalLoop=1;jettySize=auto;html=1;exitX=0.5;exitY=1;exitDx=0;exitDy=0;entryX=0.5;entryY=0;entryDx=0;entryDy=0;" edge="1" parent="EmhNzNYPSMTOKzb81x5m-2" source="EmhNzNYPSMTOKzb81x5m-24" target="EmhNzNYPSMTOKzb81x5m-25">
          <mxGeometry relative="1" as="geometry" />
        </mxCell>
        <mxCell id="EmhNzNYPSMTOKzb81x5m-24" value="&lt;span style=&quot;font-size: medium;&quot;&gt;Enter medication details including intake time&lt;/span&gt;" style="rounded=1;whiteSpace=wrap;html=1;" vertex="1" parent="EmhNzNYPSMTOKzb81x5m-2">
          <mxGeometry x="62.5" y="240" width="125" height="60" as="geometry" />
        </mxCell>
        <mxCell id="EmhNzNYPSMTOKzb81x5m-55" style="edgeStyle=orthogonalEdgeStyle;rounded=0;orthogonalLoop=1;jettySize=auto;html=1;entryX=0.5;entryY=0;entryDx=0;entryDy=0;" edge="1" parent="EmhNzNYPSMTOKzb81x5m-2" source="EmhNzNYPSMTOKzb81x5m-25" target="EmhNzNYPSMTOKzb81x5m-15">
          <mxGeometry relative="1" as="geometry" />
        </mxCell>
        <mxCell id="EmhNzNYPSMTOKzb81x5m-25" value="&lt;span style=&quot;font-size: medium;&quot;&gt;Get Reminders&lt;/span&gt;" style="rounded=1;whiteSpace=wrap;html=1;" vertex="1" parent="EmhNzNYPSMTOKzb81x5m-2">
          <mxGeometry x="65" y="350" width="120" height="60" as="geometry" />
        </mxCell>
        <mxCell id="EmhNzNYPSMTOKzb81x5m-3" value="Caretaker" style="swimlane;startSize=20;html=1;" vertex="1" parent="EmhNzNYPSMTOKzb81x5m-1">
          <mxGeometry x="260" y="20" width="250" height="830" as="geometry" />
        </mxCell>
        <mxCell id="EmhNzNYPSMTOKzb81x5m-35" value="" style="edgeStyle=orthogonalEdgeStyle;rounded=0;orthogonalLoop=1;jettySize=auto;html=1;" edge="1" parent="EmhNzNYPSMTOKzb81x5m-3" source="EmhNzNYPSMTOKzb81x5m-5" target="EmhNzNYPSMTOKzb81x5m-30">
          <mxGeometry relative="1" as="geometry" />
        </mxCell>
        <mxCell id="EmhNzNYPSMTOKzb81x5m-5" value="&lt;font size=&quot;3&quot;&gt;Book appointment with Physician&lt;/font&gt;" style="rounded=1;whiteSpace=wrap;html=1;" vertex="1" parent="EmhNzNYPSMTOKzb81x5m-3">
          <mxGeometry x="55" y="40" width="125" height="60" as="geometry" />
        </mxCell>
        <mxCell id="EmhNzNYPSMTOKzb81x5m-37" style="edgeStyle=orthogonalEdgeStyle;rounded=0;orthogonalLoop=1;jettySize=auto;html=1;entryX=0.5;entryY=0;entryDx=0;entryDy=0;" edge="1" parent="EmhNzNYPSMTOKzb81x5m-3" source="EmhNzNYPSMTOKzb81x5m-11" target="EmhNzNYPSMTOKzb81x5m-21">
          <mxGeometry relative="1" as="geometry" />
        </mxCell>
        <mxCell id="EmhNzNYPSMTOKzb81x5m-11" value="&lt;font size=&quot;3&quot;&gt;Book Lab Appointment&lt;/font&gt;" style="rounded=1;whiteSpace=wrap;html=1;" vertex="1" parent="EmhNzNYPSMTOKzb81x5m-3">
          <mxGeometry x="62.5" y="260" width="125" height="60" as="geometry" />
        </mxCell>
        <mxCell id="EmhNzNYPSMTOKzb81x5m-12" value="&lt;font size=&quot;3&quot;&gt;Enter medication details including intake time&lt;/font&gt;" style="rounded=1;whiteSpace=wrap;html=1;" vertex="1" parent="EmhNzNYPSMTOKzb81x5m-3">
          <mxGeometry x="55" y="750" width="125" height="60" as="geometry" />
        </mxCell>
        <mxCell id="EmhNzNYPSMTOKzb81x5m-39" style="edgeStyle=orthogonalEdgeStyle;rounded=0;orthogonalLoop=1;jettySize=auto;html=1;" edge="1" parent="EmhNzNYPSMTOKzb81x5m-3" source="EmhNzNYPSMTOKzb81x5m-20" target="EmhNzNYPSMTOKzb81x5m-23">
          <mxGeometry relative="1" as="geometry" />
        </mxCell>
        <mxCell id="EmhNzNYPSMTOKzb81x5m-20" value="&lt;font size=&quot;3&quot;&gt;Check diagnosis details&lt;/font&gt;" style="rounded=1;whiteSpace=wrap;html=1;" vertex="1" parent="EmhNzNYPSMTOKzb81x5m-3">
          <mxGeometry x="57.5" y="520" width="120" height="60" as="geometry" />
        </mxCell>
        <mxCell id="EmhNzNYPSMTOKzb81x5m-21" value="&lt;font size=&quot;3&quot;&gt;Diagnosis Info Access?&lt;/font&gt;" style="rhombus;whiteSpace=wrap;html=1;" vertex="1" parent="EmhNzNYPSMTOKzb81x5m-3">
          <mxGeometry x="55" y="380" width="140" height="80" as="geometry" />
        </mxCell>
        <mxCell id="EmhNzNYPSMTOKzb81x5m-49" style="edgeStyle=orthogonalEdgeStyle;rounded=0;orthogonalLoop=1;jettySize=auto;html=1;entryDx=0;entryDy=0;" edge="1" parent="EmhNzNYPSMTOKzb81x5m-3" source="EmhNzNYPSMTOKzb81x5m-23" target="EmhNzNYPSMTOKzb81x5m-12">
          <mxGeometry relative="1" as="geometry" />
        </mxCell>
        <mxCell id="EmhNzNYPSMTOKzb81x5m-50" value="&lt;font style=&quot;font-size: 14px;&quot;&gt;Yes&lt;/font&gt;" style="edgeLabel;html=1;align=center;verticalAlign=middle;resizable=0;points=[];" vertex="1" connectable="0" parent="EmhNzNYPSMTOKzb81x5m-49">
          <mxGeometry x="-0.1" relative="1" as="geometry">
            <mxPoint as="offset" />
          </mxGeometry>
        </mxCell>
        <mxCell id="EmhNzNYPSMTOKzb81x5m-23" value="&lt;font size=&quot;3&quot;&gt;Medication Info Access?&lt;/font&gt;" style="rhombus;whiteSpace=wrap;html=1;" vertex="1" parent="EmhNzNYPSMTOKzb81x5m-3">
          <mxGeometry x="62.5" y="610" width="110" height="80" as="geometry" />
        </mxCell>
        <mxCell id="EmhNzNYPSMTOKzb81x5m-30" value="&lt;font size=&quot;3&quot;&gt;Lab ordered?&lt;/font&gt;" style="rhombus;whiteSpace=wrap;html=1;" vertex="1" parent="EmhNzNYPSMTOKzb81x5m-3">
          <mxGeometry x="62.5" y="130" width="110" height="80" as="geometry" />
        </mxCell>
        <mxCell id="EmhNzNYPSMTOKzb81x5m-36" style="edgeStyle=orthogonalEdgeStyle;rounded=0;orthogonalLoop=1;jettySize=auto;html=1;entryX=0.44;entryY=0.025;entryDx=0;entryDy=0;entryPerimeter=0;" edge="1" parent="EmhNzNYPSMTOKzb81x5m-3" source="EmhNzNYPSMTOKzb81x5m-30" target="EmhNzNYPSMTOKzb81x5m-11">
          <mxGeometry relative="1" as="geometry" />
        </mxCell>
        <mxCell id="EmhNzNYPSMTOKzb81x5m-38" value="&lt;font style=&quot;font-size: 14px;&quot;&gt;Yes&lt;/font&gt;" style="edgeStyle=orthogonalEdgeStyle;rounded=0;orthogonalLoop=1;jettySize=auto;html=1;entryX=0.563;entryY=0;entryDx=0;entryDy=0;entryPerimeter=0;" edge="1" parent="EmhNzNYPSMTOKzb81x5m-3" source="EmhNzNYPSMTOKzb81x5m-21" target="EmhNzNYPSMTOKzb81x5m-20">
          <mxGeometry relative="1" as="geometry" />
        </mxCell>
        <mxCell id="EmhNzNYPSMTOKzb81x5m-4" value="Physician Office" style="swimlane;startSize=20;html=1;" vertex="1" parent="EmhNzNYPSMTOKzb81x5m-1">
          <mxGeometry x="510" y="20" width="250" height="830" as="geometry" />
        </mxCell>
        <mxCell id="EmhNzNYPSMTOKzb81x5m-6" value="&lt;font size=&quot;3&quot;&gt;Send lab order to Laboratory&lt;/font&gt;" style="rounded=1;whiteSpace=wrap;html=1;" vertex="1" parent="EmhNzNYPSMTOKzb81x5m-4">
          <mxGeometry x="65" y="40" width="120" height="60" as="geometry" />
        </mxCell>
        <mxCell id="EmhNzNYPSMTOKzb81x5m-48" style="edgeStyle=orthogonalEdgeStyle;rounded=0;orthogonalLoop=1;jettySize=auto;html=1;exitX=0.5;exitY=1;exitDx=0;exitDy=0;entryX=0.5;entryY=0;entryDx=0;entryDy=0;" edge="1" parent="EmhNzNYPSMTOKzb81x5m-4" source="EmhNzNYPSMTOKzb81x5m-9" target="EmhNzNYPSMTOKzb81x5m-10">
          <mxGeometry relative="1" as="geometry" />
        </mxCell>
        <mxCell id="EmhNzNYPSMTOKzb81x5m-9" value="&lt;font size=&quot;3&quot;&gt;Send medication order to pharmacy&lt;/font&gt;" style="rounded=1;whiteSpace=wrap;html=1;" vertex="1" parent="EmhNzNYPSMTOKzb81x5m-4">
          <mxGeometry x="65" y="290" width="125" height="60" as="geometry" />
        </mxCell>
        <mxCell id="EmhNzNYPSMTOKzb81x5m-10" value="&lt;font size=&quot;3&quot;&gt;Front-desk schedules follow-up visit&lt;/font&gt;" style="rounded=1;whiteSpace=wrap;html=1;" vertex="1" parent="EmhNzNYPSMTOKzb81x5m-4">
          <mxGeometry x="65" y="410" width="125" height="60" as="geometry" />
        </mxCell>
        <mxCell id="EmhNzNYPSMTOKzb81x5m-22" value="&lt;font size=&quot;3&quot;&gt;Nurse Practitioner enters diagnosis details&lt;/font&gt;" style="rounded=1;whiteSpace=wrap;html=1;" vertex="1" parent="EmhNzNYPSMTOKzb81x5m-4">
          <mxGeometry x="68" y="160" width="122" height="70" as="geometry" />
        </mxCell>
        <mxCell id="EmhNzNYPSMTOKzb81x5m-33" style="edgeStyle=orthogonalEdgeStyle;rounded=0;orthogonalLoop=1;jettySize=auto;html=1;" edge="1" parent="EmhNzNYPSMTOKzb81x5m-4" source="EmhNzNYPSMTOKzb81x5m-22">
          <mxGeometry relative="1" as="geometry">
            <mxPoint x="129" y="290" as="targetPoint" />
          </mxGeometry>
        </mxCell>
        <mxCell id="EmhNzNYPSMTOKzb81x5m-47" style="edgeStyle=orthogonalEdgeStyle;rounded=0;orthogonalLoop=1;jettySize=auto;html=1;entryDx=0;entryDy=0;entryPerimeter=0;" edge="1" parent="EmhNzNYPSMTOKzb81x5m-4" source="EmhNzNYPSMTOKzb81x5m-6" target="EmhNzNYPSMTOKzb81x5m-22">
          <mxGeometry relative="1" as="geometry" />
        </mxCell>
        <mxCell id="EmhNzNYPSMTOKzb81x5m-7" value="Lab Technician" style="swimlane;startSize=20;html=1;" vertex="1" parent="EmhNzNYPSMTOKzb81x5m-1">
          <mxGeometry x="760" y="20" width="250" height="830" as="geometry" />
        </mxCell>
        <mxCell id="EmhNzNYPSMTOKzb81x5m-8" value="&lt;font size=&quot;3&quot;&gt;Enter Patient Diagnosis details&lt;/font&gt;" style="rounded=1;whiteSpace=wrap;html=1;" vertex="1" parent="EmhNzNYPSMTOKzb81x5m-7">
          <mxGeometry x="60" y="40" width="120" height="60" as="geometry" />
        </mxCell>
        <mxCell id="EmhNzNYPSMTOKzb81x5m-26" style="edgeStyle=orthogonalEdgeStyle;rounded=0;orthogonalLoop=1;jettySize=auto;html=1;entryX=0;entryY=0.5;entryDx=0;entryDy=0;" edge="1" parent="EmhNzNYPSMTOKzb81x5m-1" source="EmhNzNYPSMTOKzb81x5m-5" target="EmhNzNYPSMTOKzb81x5m-6">
          <mxGeometry relative="1" as="geometry" />
        </mxCell>
        <mxCell id="EmhNzNYPSMTOKzb81x5m-27" style="edgeStyle=orthogonalEdgeStyle;rounded=0;orthogonalLoop=1;jettySize=auto;html=1;entryX=0;entryY=0.5;entryDx=0;entryDy=0;" edge="1" parent="EmhNzNYPSMTOKzb81x5m-1" source="EmhNzNYPSMTOKzb81x5m-19" target="EmhNzNYPSMTOKzb81x5m-6">
          <mxGeometry relative="1" as="geometry">
            <Array as="points">
              <mxPoint x="125" y="50" />
              <mxPoint x="540" y="50" />
              <mxPoint x="540" y="90" />
            </Array>
          </mxGeometry>
        </mxCell>
        <mxCell id="EmhNzNYPSMTOKzb81x5m-28" style="edgeStyle=orthogonalEdgeStyle;rounded=0;orthogonalLoop=1;jettySize=auto;html=1;entryX=0;entryY=0.5;entryDx=0;entryDy=0;" edge="1" parent="EmhNzNYPSMTOKzb81x5m-1" source="EmhNzNYPSMTOKzb81x5m-6" target="EmhNzNYPSMTOKzb81x5m-8">
          <mxGeometry relative="1" as="geometry" />
        </mxCell>
        <mxCell id="EmhNzNYPSMTOKzb81x5m-29" style="edgeStyle=orthogonalEdgeStyle;rounded=0;orthogonalLoop=1;jettySize=auto;html=1;entryX=0.992;entryY=0.671;entryDx=0;entryDy=0;entryPerimeter=0;" edge="1" parent="EmhNzNYPSMTOKzb81x5m-1" source="EmhNzNYPSMTOKzb81x5m-8" target="EmhNzNYPSMTOKzb81x5m-22">
          <mxGeometry relative="1" as="geometry">
            <Array as="points">
              <mxPoint x="870" y="227" />
            </Array>
          </mxGeometry>
        </mxCell>
        <mxCell id="EmhNzNYPSMTOKzb81x5m-43" style="edgeStyle=orthogonalEdgeStyle;rounded=0;orthogonalLoop=1;jettySize=auto;html=1;entryX=1;entryY=0.75;entryDx=0;entryDy=0;" edge="1" parent="EmhNzNYPSMTOKzb81x5m-1" source="EmhNzNYPSMTOKzb81x5m-22" target="EmhNzNYPSMTOKzb81x5m-20">
          <mxGeometry relative="1" as="geometry">
            <Array as="points">
              <mxPoint x="480" y="215" />
              <mxPoint x="480" y="575" />
            </Array>
          </mxGeometry>
        </mxCell>
        <mxCell id="EmhNzNYPSMTOKzb81x5m-45" style="edgeStyle=orthogonalEdgeStyle;rounded=0;orthogonalLoop=1;jettySize=auto;html=1;entryX=0.75;entryY=0;entryDx=0;entryDy=0;" edge="1" parent="EmhNzNYPSMTOKzb81x5m-1" source="EmhNzNYPSMTOKzb81x5m-22" target="EmhNzNYPSMTOKzb81x5m-14">
          <mxGeometry relative="1" as="geometry">
            <Array as="points">
              <mxPoint x="610" y="140" />
              <mxPoint x="158" y="140" />
            </Array>
          </mxGeometry>
        </mxCell>
        <mxCell id="EmhNzNYPSMTOKzb81x5m-46" style="edgeStyle=orthogonalEdgeStyle;rounded=0;orthogonalLoop=1;jettySize=auto;html=1;entryX=0.812;entryY=-0.017;entryDx=0;entryDy=0;entryPerimeter=0;" edge="1" parent="EmhNzNYPSMTOKzb81x5m-1" source="EmhNzNYPSMTOKzb81x5m-9" target="EmhNzNYPSMTOKzb81x5m-24">
          <mxGeometry relative="1" as="geometry">
            <Array as="points">
              <mxPoint x="620" y="259" />
              <mxPoint x="381" y="259" />
              <mxPoint x="381" y="240" />
              <mxPoint x="164" y="240" />
            </Array>
          </mxGeometry>
        </mxCell>
        <mxCell id="EmhNzNYPSMTOKzb81x5m-52" value="&lt;font style=&quot;font-size: 14px;&quot;&gt;Yes&lt;/font&gt;" style="edgeLabel;html=1;align=center;verticalAlign=middle;resizable=0;points=[];" vertex="1" connectable="0" parent="EmhNzNYPSMTOKzb81x5m-46">
          <mxGeometry x="0.0716" y="3" relative="1" as="geometry">
            <mxPoint as="offset" />
          </mxGeometry>
        </mxCell>
        <mxCell id="EmhNzNYPSMTOKzb81x5m-62" style="edgeStyle=orthogonalEdgeStyle;rounded=0;orthogonalLoop=1;jettySize=auto;html=1;entryX=0.814;entryY=0.3;entryDx=0;entryDy=0;entryPerimeter=0;" edge="1" parent="EmhNzNYPSMTOKzb81x5m-1" source="EmhNzNYPSMTOKzb81x5m-6" target="EmhNzNYPSMTOKzb81x5m-30">
          <mxGeometry relative="1" as="geometry">
            <Array as="points">
              <mxPoint x="635" y="130" />
              <mxPoint x="412" y="130" />
            </Array>
          </mxGeometry>
        </mxCell>
        <mxCell id="EmhNzNYPSMTOKzb81x5m-63" style="edgeStyle=orthogonalEdgeStyle;rounded=0;orthogonalLoop=1;jettySize=auto;html=1;entryX=1;entryY=0.75;entryDx=0;entryDy=0;" edge="1" parent="EmhNzNYPSMTOKzb81x5m-1" source="EmhNzNYPSMTOKzb81x5m-9" target="EmhNzNYPSMTOKzb81x5m-12">
          <mxGeometry relative="1" as="geometry">
            <Array as="points">
              <mxPoint x="500" y="340" />
              <mxPoint x="500" y="815" />
            </Array>
          </mxGeometry>
        </mxCell>
      </root>
    </mxGraphModel>
  </diagram>
</mxfile>
